<mxfile host="app.diagrams.net" agent="Mozilla/5.0 (Windows NT 10.0; Win64; x64) AppleWebKit/537.36 (KHTML, like Gecko) Chrome/133.0.0.0 Safari/537.36" version="26.1.0">
  <diagram name="PÃ¡gina-1" id="YnqjhsXuRA6Esa4ScSgD">
    <mxGraphModel dx="724" dy="384" grid="1" gridSize="10" guides="1" tooltips="1" connect="1" arrows="1" fold="1" page="1" pageScale="1" pageWidth="827" pageHeight="1169" math="0" shadow="0">
      <root>
        <mxCell id="0" />
        <mxCell id="1" parent="0" />
        <mxCell id="t81BPQGYyjbn3K862mOT-1" value="User 1" style="whiteSpace=wrap;html=1;aspect=fixed;" vertex="1" parent="1">
          <mxGeometry x="100" y="190" width="80" height="80" as="geometry" />
        </mxCell>
        <mxCell id="t81BPQGYyjbn3K862mOT-2" value="" style="shape=flexArrow;endArrow=classic;html=1;rounded=0;endWidth=26.666666666666664;endSize=8.033333333333333;" edge="1" parent="1">
          <mxGeometry width="50" height="50" relative="1" as="geometry">
            <mxPoint x="200" y="229.76" as="sourcePoint" />
            <mxPoint x="280" y="229.76" as="targetPoint" />
          </mxGeometry>
        </mxCell>
        <mxCell id="t81BPQGYyjbn3K862mOT-4" value="Registration" style="edgeLabel;html=1;align=center;verticalAlign=middle;resizable=0;points=[];" vertex="1" connectable="0" parent="t81BPQGYyjbn3K862mOT-2">
          <mxGeometry x="-0.055" y="-1" relative="1" as="geometry">
            <mxPoint as="offset" />
          </mxGeometry>
        </mxCell>
        <mxCell id="t81BPQGYyjbn3K862mOT-3" value="1 Event" style="whiteSpace=wrap;html=1;aspect=fixed;" vertex="1" parent="1">
          <mxGeometry x="300" y="190" width="80" height="80" as="geometry" />
        </mxCell>
      </root>
    </mxGraphModel>
  </diagram>
</mxfile>
